<?xml version="1.0" encoding="UTF-8"?>
<svg id="Layer_2" data-name="Layer 2" xmlns="http://www.w3.org/2000/svg" viewBox="0 0 323.77 338">
  <defs>
    <style>
      .cls-1 {
        fill: #0a1b30;
      }

      .cls-2 {
        fill: #0f9391;
      }

      .cls-3 {
        fill: #67abaf;
      }

      .cls-4 {
        fill: #90ae51;
      }

      .cls-5 {
        fill: #e28d2c;
      }
    </style>
  </defs>
  <g id="Layer_1-2" data-name="Layer 1">
    <g>
      <g>
        <g>
          <g>
            <path class="cls-1" d="M160.99,218.1c-2.11,0-3.83-1.71-3.83-3.83V3.83c0-2.11,1.71-3.83,3.83-3.83s3.83,1.71,3.83,3.83v210.44c0,2.11-1.71,3.83-3.83,3.83Z"/>
            <path class="cls-1" d="M172.91,234.66c-.59,0-1.19-.14-1.75-.43-8.69-4.49-13.88-12.37-13.88-21.07,0-2.11,1.71-3.83,3.83-3.83s3.83,1.71,3.83,3.83c0,5.78,3.64,11.11,9.74,14.27,1.88.97,2.61,3.28,1.64,5.16-.68,1.32-2.02,2.07-3.4,2.07Z"/>
          </g>
          <g>
            <path class="cls-4" d="M104.45,59.25c-15.97,22.97-26.66,54.64-30.13,89.24.46-.1.88-.35,1.2-.71,11.05-12.25,26.67-19.28,42.84-19.28s30.66,6.43,41.77,18.1c.3.31.67.51,1.07.61V23.15c-20.82.56-40.92,13.32-56.76,36.1Z"/>
            <path class="cls-3" d="M161.36,23.13c-.05,0-.1,0-.15,0v124.04c.35-.11.67-.29.93-.57,11.11-11.68,25.94-18.1,41.77-18.1s32.23,7.22,43.31,19.8c.44.5,1.06.78,1.7.79h.82c-3.4-34.75-14.06-66.57-30.07-89.66-16.22-23.41-36.93-36.3-58.31-36.3Z"/>
            <path class="cls-5" d="M151.51,24.13c-31.85,2.16-62.19,12.81-88.39,31.18C34.26,75.53,12.49,103.5.16,136.2c-.45,1.2.14,2.17.79,2.64.67.48,1.73.73,2.73-.05,8.51-6.64,18.44-10.16,28.73-10.16,14.42,0,27.81,6.76,37.69,19.03.44.55,1.09.87,1.78.87h2.44c3.48-34.64,14.25-66.38,30.38-89.41,13.29-18.98,29.58-31.07,46.83-35.01Z"/>
            <path class="cls-2" d="M260.72,55.6c-26.08-18.41-56.28-29.17-88.02-31.47,17.22,4,33.48,16.13,46.75,35.15,16.15,23.15,26.89,55.03,30.3,89.82h.34s0,0,0,0c.7,0,1.36-.32,1.8-.89,9.77-12.44,23.67-19.58,38.12-19.58,10.84,0,21.21,3.86,30,11.18.99.83,2.11.58,2.77.13.66-.46,1.27-1.43.82-2.64-12.18-33-33.93-61.24-62.89-81.69Z"/>
          </g>
        </g>
        <g>
          <path class="cls-1" d="M158.77,189.85s-24.68,22.8-29.76,39.28c-.28.91-.52,2.77-.93,3.48-.22.38-1.14.47-1.51.64-4.52,2.03-7.15,6.65-6.33,11.61.54,3.26,3.48,6.27,5.19,9.04.03.05.05.1.06.15.37,2.11.08,4.37.16,6.52.05,1.35.26,2.72.34,4.06,1.17,19.21,2.87,38.4,4.18,57.6.2,2.98.61,6.56.57,9.48-.08,5.55-6.57,8.15-10.77,4.56-2.08-1.78-1.96-4.44-2.35-6.91-2.64-17.07-4.78-34.22-7.43-51.31-.13-.85-.07-1.85-.38-2.67-.07-.19-.19-.22-.37-.2-.55.06-.45,1.63-.52,2.08-2.55,16.3-4.93,32.63-7.43,48.93-.34,2.21-.49,4.64-.97,6.82-1.23,5.62-8.8,6.83-11.79,1.84-1.6-2.68-.49-7.5-.25-10.6,2.21-28.89,4.59-57.75,6.78-86.63.04-.47.4-2.47.35-3.41-.01-.26-.27-.43-.52-.35h0c-.11.04-.2.12-.25.23-1.2,3.03-2.29,6.1-3.46,9.15-.47,1.22-1.02,2.46-1.49,3.7-2.11,5.53-4.02,11.63-6.38,17-1.31,2.98-3.74,4.57-7.05,4.22-1.8-.19-3.93-2.01-4.14-3.88-.38-3.48,1.83-8.29,2.86-11.71,3.03-10.05,5.9-22.27,10.94-31.42,6.74-12.23,19.71-14.19,32.23-16.79.06-.01.12-.04.17-.08,9.24-7.31,18.45-14.69,27.71-21.97,2.25-1.77,3.98-3.82,7.12-3.81,2.16.01,6.42,5.89,6.58,5.75"/>
          <path class="cls-2" d="M162.1,181.06c2.83-3.15,6.69-3.34,9.97-.68,7.97,6.44,16.07,12.78,24.1,19.14,1.75,1.39,3.44,2.94,5.23,4.29,1.25.95,1.73.77,3.13,1.05,8.22,1.66,18.54,3.7,24.77,9.68,2.91,2.79,4.06,5.48,5.84,8.96,4.66,9.12,9.14,18.88,13.12,28.33.89,2.12,3.11,7,3.12,9.08.05,6.61-8.83,8.8-12.06,3.16,0-.01-.01-.02-.02-.03l-14.31-28.97s-.04-.06-.06-.09l-.08-.09c-.24-.27-.69-.11-.7.25,0,.52.11,1.15.14,1.34.18,1.07.54,2.27.73,3.33,2.75,14.98,5.62,29.91,8.42,44.9l1.35,7.21c.03.16-.03.34-.18.41-.67.36-2.5.3-3.06.37-10.97,1.25-32.11,3.71-37.67,4.13-.66.05-1.21-.47-1.2-1.13.01-1.38-.12-2.97-.04-4.18.7-10.81,1.82-21.58,2.39-32.41,0-.06.02-.12.05-.18,1.96-3.49,4.87-6.73,6.87-10.17,4.25-7.32.1-15.16-8.13-16.26-.56-.07-1.01.21-1.41-.4-1.37-4.69-3-9.25-5.29-13.57-4.6-8.7-11.53-16.58-18.81-23.15-2.1-1.89-5.86-4.38-7.27-6.68-.11-.17-.1-.43-.25-.65"/>
          <circle class="cls-1" cx="167.44" cy="185.61" r="7.1"/>
          <circle class="cls-1" cx="152.97" cy="185.61" r="7.1"/>
          <path class="cls-5" d="M137.45,242.95c5.04,4.93,9.93,10.04,14.9,15.03,4.91,4.94,12.67,5.36,18.07.92l19.22-19.3c3.03-3.27,8.64-1.07,8.53,3.44-.05,2-2.83,5.61-4.02,7.39-5.19,7.78-10.66,15.4-15.74,23.23v22.02s7,35.7,7,35.7c-.09,4.72-4.51,7.78-8.96,6.13-2.58-.96-3.39-2.98-4.2-5.4-2.74-8.2-5.05-16.54-7.63-24.79-.68-2.18-1.33-4.59-2.08-6.73-.69-1.95-1.1-.42-1.44.59-3.26,9.57-5.87,19.4-8.95,29-.89,2.76-1.53,6-4.53,7.21-5.12,2.08-9.88-1.75-9.07-7.15.37-2.46,1.07-4.93,1.54-7.38,1.78-9.23,3.5-18.46,5.44-27.65v-21.1c-.09-.63-1.33-2.35-1.75-2.99-5.77-8.82-12.05-17.33-17.75-26.19-1.53-3.89,1.77-7.72,5.87-6.78,1.53.35,4.32,3.58,5.55,4.78Z"/>
          <path class="cls-1" d="M229.08,294.35c.53-.07,1.02.29,1.17.85.12.46.16.95.28,1.41,2.33,9.14,4.51,18.31,6.66,27.51.84,3.59,2.37,6.71.61,10.29-2.02,4.11-7.7,4.88-10.43,1.21-1.65-2.21-2.12-6.21-2.81-9.01-2.48-10.05-4.89-20.16-7.4-30.2.1-.63,1.09-.73,1.74-.8,2.94-.34,5.86-.72,8.81-1,.45-.04.91-.19,1.37-.25Z"/>
          <path class="cls-1" d="M208.79,332.21c-1.2,7.7-12.36,7.79-12.88-1.11l.09-32.23c.08-.18.13-.24.31-.28,1.48-.29,3.03-.31,4.52-.5,1.93-.25,4.08-.72,5.99-.87.35-.03.85-.06,1.29-.02.39.04.69.41.69.84v34.16Z"/>
          <circle class="cls-1" cx="161.86" cy="247.08" r="10.54"/>
          <circle class="cls-1" cx="109.41" cy="187.55" r="14.64"/>
          <circle class="cls-1" cx="212.81" cy="187.55" r="14.64"/>
        </g>
      </g>
      <path class="cls-1" d="M212.81,185.82c6.84,0,12.72,4.78,15.44,11.66,1.03-2.6,1.62-5.49,1.62-8.56,0-11.17-7.64-20.22-17.06-20.22s-17.06,9.05-17.06,20.22c0,3.06.59,5.96,1.62,8.56,2.72-6.88,8.6-11.66,15.44-11.66Z"/>
    </g>
  </g>
</svg>