<?xml version="1.0" encoding="UTF-8"?>
<svg id="Layer_2" data-name="Layer 2" xmlns="http://www.w3.org/2000/svg" viewBox="0 0 347.56 251.9">
  <defs>
    <style>
      .cls-1 {
        fill: #0a1b30;
      }

      .cls-2 {
        fill: #0f9391;
      }

      .cls-3 {
        fill: #67abaf;
      }

      .cls-4 {
        fill: #90ae51;
      }

      .cls-5 {
        fill: #e28d2c;
      }
    </style>
  </defs>
  <g id="Layer_1-2" data-name="Layer 1">
    <g>
      <g>
        <path class="cls-1" d="M172.82,234.12c-2.27,0-4.11-1.84-4.11-4.11V4.11c0-2.27,1.84-4.11,4.11-4.11s4.11,1.84,4.11,4.11v225.9c0,2.27-1.84,4.11-4.11,4.11Z"/>
        <path class="cls-1" d="M185.62,251.9c-.64,0-1.28-.15-1.88-.46-9.33-4.82-14.9-13.28-14.9-22.62,0-2.27,1.84-4.11,4.11-4.11s4.11,1.84,4.11,4.11c0,6.21,3.91,11.93,10.45,15.31,2.02,1.04,2.81,3.52,1.76,5.54-.73,1.41-2.17,2.22-3.66,2.22Z"/>
      </g>
      <g>
        <path class="cls-4" d="M112.13,63.6c-17.15,24.66-28.62,58.65-32.35,95.8.49-.11.94-.37,1.29-.76,11.86-13.15,28.63-20.7,45.99-20.7s32.92,6.9,44.84,19.44c.32.33.72.55,1.15.65V24.86c-22.35.6-43.93,14.3-60.93,38.75Z"/>
        <path class="cls-3" d="M173.22,24.83c-.05,0-.11,0-.16,0v133.16c.37-.12.72-.31,1-.61,11.92-12.53,27.85-19.44,44.84-19.44s34.59,7.75,46.5,21.26c.47.53,1.14.84,1.83.84h.87c-3.65-37.3-15.1-71.46-32.28-96.25-17.41-25.13-39.64-38.97-62.6-38.97Z"/>
        <path class="cls-5" d="M162.64,25.9c-34.19,2.32-66.76,13.75-94.89,33.47C36.78,81.08,13.41,111.11.17,146.21c-.49,1.29.15,2.33.84,2.84.72.52,1.86.78,2.93-.06,9.13-7.13,19.8-10.9,30.84-10.9,15.48,0,29.85,7.26,40.46,20.43.48.59,1.17.93,1.91.93h2.62c3.73-37.19,15.3-71.26,32.61-95.98,14.27-20.38,31.76-33.35,50.27-37.58Z"/>
        <path class="cls-2" d="M279.88,59.68c-28-19.77-60.42-31.31-94.49-33.78,18.49,4.3,35.94,17.32,50.18,37.74,17.33,24.85,28.87,59.08,32.53,96.42h.37s0,0,0,0c.75,0,1.46-.35,1.93-.96,10.49-13.35,25.41-21.01,40.92-21.01,11.63,0,22.77,4.15,32.2,12,1.07.89,2.27.62,2.97.13.71-.5,1.36-1.54.88-2.84-13.08-35.42-36.43-65.74-67.52-87.7Z"/>
      </g>
    </g>
  </g>
</svg>